<?xml version="1.0" encoding="UTF-8" standalone="no"?>
<svg
   xmlns:dc="http://purl.org/dc/elements/1.1/"
   xmlns:cc="http://creativecommons.org/ns#"
   xmlns:rdf="http://www.w3.org/1999/02/22-rdf-syntax-ns#"
   xmlns:svg="http://www.w3.org/2000/svg"
   xmlns="http://www.w3.org/2000/svg"
   viewBox="0 0 400 400"
   height="400"
   width="400"
   id="svg3713"
   version="1.1">
  <metadata
     id="metadata3719">
    <rdf:RDF>
      <cc:Work
         rdf:about="">
        <dc:format>image/svg+xml</dc:format>
        <dc:type
           rdf:resource="http://purl.org/dc/dcmitype/StillImage" />
        <dc:title></dc:title>
      </cc:Work>
    </rdf:RDF>
  </metadata>
  <defs
     id="defs3717" />
  <g
     id="g19">
    <path
       style="fill:none;stroke-width:1.18806183"
       d="M 184.45602,393.54491 C 94.552351,387.13077 20.768534,317.61797 7.3811456,226.72012 5.1800829,211.77532 5.7181383,182.68298 8.4912528,166.69734 23.722103,78.898943 97.113195,12.580392 185.86896,6.4131529 231.3882,3.2502246 276.01281,15.664912 312.74609,41.710731 c 14.42445,10.227692 35.20504,31.008283 45.43273,45.432731 40.90554,57.690438 47.27927,134.418128 16.43044,197.791688 -35.1041,72.11529 -109.1202,114.39105 -190.15324,108.60976 z m 34.35367,-2.86366 c 30.48753,-2.26941 65.08114,-15.24872 92.76894,-34.80639 14.24795,-10.06423 33.8518,-29.65803 44.26855,-44.24583 9.13436,-12.79193 21.74962,-37.56666 26.29662,-51.64318 C 404.49669,190.78627 386.52253,115.78731 335.31239,64.577167 287.98785,17.252638 221.26997,-1.6768209 155.3004,13.503466 102.52363,25.647958 55.174613,62.765812 29.562258,112.07216 c -28.3406841,54.55865 -28.3406841,121.2745 0,175.83315 30.682219,59.06633 90.303492,98.51652 156.081822,103.27613 12.20489,0.88312 15.18585,0.83816 33.16561,-0.50019 z m -32.57158,-12.0116 C 154.27301,375.42989 125.97287,365.57962 101.14726,349.05254 84.928231,338.2551 61.391598,314.80312 51.018096,299.10367 30.793055,268.49473 21.285982,236.80198 21.285982,199.98873 c 0,-29.06816 5.268353,-52.32382 17.62896,-77.81805 25.161094,-51.895711 73.882708,-88.55653 131.284338,-98.785517 15.43644,-2.750779 44.18726,-2.699965 59.99712,0.106094 74.37383,13.200187 133.00177,71.828126 146.20196,146.201963 2.85239,16.07124 2.85239,44.5199 0,60.59115 -4.26161,24.01111 -13.93737,48.11923 -27.62934,68.84119 -10.05515,15.21785 -33.83968,39.05497 -49.2616,49.37052 -20.39574,13.64249 -45.60561,23.85581 -68.56484,27.7778 -11.34882,1.93864 -36.11799,3.2661 -44.70447,2.39583 z m 43.36426,-4.76071 c 24.80357,-4.12669 51.81445,-15.53059 73.4627,-31.0157 l 11.08946,-7.93236 -0.77097,-5.40985 c -1.3512,-9.48123 -8.43467,-28.28851 -14.42249,-38.29304 -7.18855,-12.0107 -23.01829,-28.912 -33.77934,-36.06593 -11.32987,-7.53209 -24.43678,-13.34249 -37.66957,-16.69927 -16.25097,-4.12239 -39.12311,-4.08398 -55.59066,0.0934 -37.65507,9.55199 -68.44962,37.74033 -80.874501,74.02992 -2.197903,6.41945 -4.324153,14.06455 -4.725005,16.98909 l -0.728828,5.31738 11.116432,7.92111 c 39.564002,28.19172 85.551132,38.94177 132.892772,31.0653 z M 84.658826,329.79027 c 0,-4.88297 4.267067,-18.50431 8.886631,-28.36792 6.755783,-14.42483 13.553013,-24.21753 23.931513,-34.47782 20.62454,-20.38963 46.62465,-31.79593 75.98252,-33.33367 41.88383,-2.19385 80.43862,16.70573 103.48881,50.73026 8.01338,11.8286 15.95598,30.79576 17.66318,42.18019 0.44304,2.95433 1.18855,5.60823 1.65669,5.89756 0.46816,0.28933 3.31417,-1.98941 6.32451,-5.06388 l 5.47331,-5.58992 -4.40961,-13.12829 c -12.40543,-36.93347 -38.99102,-65.00337 -75.51325,-79.72933 -5.29667,-2.13563 -9.6303,-4.41261 -9.6303,-5.05994 0,-0.64733 3.54001,-4.09694 7.86669,-7.66578 18.5781,-15.32409 29.26883,-41.85719 26.03128,-64.60652 -3.1739,-22.30202 -14.67613,-40.71139 -32.85757,-52.58872 -13.04326,-8.520708 -22.94537,-11.280683 -40.24644,-11.217691 -12.45961,0.04538 -15.37054,0.457867 -23.09255,3.272492 -41.30975,15.057129 -60.62011,60.652309 -42.36742,100.036979 4.39206,9.47695 13.22884,20.42362 20.87713,25.86176 3.88918,2.76532 6.95729,5.75364 6.81805,6.64073 -0.13925,0.88708 -3.47641,2.82304 -7.41591,4.30211 -37.24862,13.98493 -65.317162,43.05161 -77.980831,80.75391 l -4.409611,13.12829 5.473318,5.58992 c 5.411431,5.52672 7.44986,6.19306 7.44986,2.43528 z M 182.0666,216.77406 c -24.50862,-7.84515 -41.61782,-31.29116 -41.55131,-56.94089 0.0755,-29.11391 21.73848,-54.07842 50.77208,-58.50993 35.41294,-5.405217 68.01654,22.81181 68.01654,58.86542 0,25.38894 -17.33932,49.03639 -41.4103,56.47555 -9.78321,3.02353 -26.56381,3.07497 -35.82701,0.1099 z m 28.65649,-0.17707 c 9.5947,-1.81959 20.49758,-7.44059 27.76613,-14.31488 12.95213,-12.24959 18.72186,-25.44648 18.6631,-42.68748 -0.0549,-16.11948 -5.63921,-29.2094 -17.3978,-40.78162 -27.64337,-27.205216 -74.61171,-18.873291 -91.47087,16.22644 -11.41172,23.75848 -6.30564,49.44939 13.41668,67.50529 13.57759,12.43036 31.09607,17.45199 49.02276,14.05225 z m -137.421743,94.2522 c 1.251552,-4.37014 4.573931,-12.66801 7.38308,-18.43969 15.975261,-32.82294 41.475603,-55.34453 76.889383,-67.90773 1.90784,-0.67681 1.46086,-1.37315 -3.13308,-4.88087 -17.58374,-13.42618 -29.42102,-37.33892 -29.36718,-59.32527 0.0506,-20.67892 7.11162,-37.56467 21.93221,-52.44903 15.54974,-15.616677 31.38881,-22.291814 52.89506,-22.291814 21.14005,0 37.29363,6.699112 52.35614,21.712824 14.35915,14.31264 20.92674,28.63323 22.09078,48.1688 1.46943,24.66075 -9.74487,49.49216 -28.98683,64.18449 -4.59394,3.50772 -5.04092,4.20406 -3.13308,4.88087 22.42885,7.95674 40.21256,19.49673 55.39753,35.94788 12.62555,13.67834 24.08842,33.68611 28.87493,50.39954 1.25157,4.37014 2.64155,7.94572 3.08887,7.94572 2.88604,0 21.13779,-26.10167 28.52365,-40.79142 6.32377,-12.57735 13.39756,-34.28624 15.93633,-48.90724 2.76011,-15.89575 2.75032,-42.41648 -0.0215,-58.21503 C 356.55646,71.300325 259.70556,5.9696031 161.8209,27.737283 110.54065,39.141025 65.728,74.311884 41.669321,122.03729 c -6.296799,12.49101 -13.377457,34.2194 -15.916832,48.84393 -2.747809,15.82492 -2.747809,42.3901 0,58.21503 2.48337,14.30197 9.576241,36.25421 15.593204,48.26058 7.69188,15.34846 25.866089,41.43808 28.866076,41.43808 0.447709,0 1.838015,-3.57558 3.089578,-7.94572 z"
       id="path3723" />
    <path
       style="fill:#b3b3b3;stroke:none;stroke-width:0.50690639;stroke-opacity:1"
       d="M 187.83645,391.13174 C 152.81279,388.79164 118.70156,376.72712 90.003524,356.52999 76.77505,347.22005 60.390632,331.90603 50.891829,319.97347 36.389063,301.75487 25.842674,282.65107 18.71011,261.67923 3.4263243,216.74051 5.5584782,166.5809 24.603276,123.04035 41.837942,83.638169 74.17689,49.425149 113.06776,29.449292 134.23352,18.577731 154.38402,12.584963 179.49562,9.6936065 c 10.36887,-1.1938762 30.64535,-1.1932453 41.03629,0.00131 37.49912,4.3108265 70.4179,18.0887755 99.85474,41.7935665 7.01379,5.648034 20.15416,18.530889 25.67309,25.169969 25.43535,30.597828 40.12832,65.284108 44.29856,104.577428 0.96128,9.05763 0.96246,29.14678 0.002,38.19422 -1.98952,18.74552 -6.46945,36.88566 -12.68672,51.37117 -7.97156,18.57278 -18.16426,36.21894 -27.74657,48.03633 -5.80087,7.15394 -23.75718,25.14732 -30.80203,30.86563 -24.62963,19.99189 -59.20386,35.07262 -90.98969,39.68829 -6.13805,0.89132 -26.1194,2.33152 -30.9213,2.22872 -1.67279,-0.0358 -5.89278,-0.25561 -9.37776,-0.48846 z m 23.72961,-12.63378 c 15.90149,-1.13221 25.31503,-2.71953 37.85951,-6.38394 18.12616,-5.29487 40.52583,-16.13065 54.10576,-26.17348 15.26418,-11.28839 36.57724,-33.31614 45.7239,-47.25714 14.62888,-22.29679 25.185,-49.95437 28.15016,-73.75487 1.71934,-13.80063 1.62753,-38.24711 -0.19229,-51.19754 -4.07255,-28.98177 -17.82474,-60.6436 -36.53905,-84.124319 C 317.76159,60.858557 288.76082,40.634906 254.24119,29.332803 234.95507,23.018326 217.58892,20.712666 193.91932,21.324042 176.01717,21.786436 167.41434,23.050225 151.77704,27.51489 121.35606,36.200477 95.60419,51.385273 73.252756,73.817329 58.697086,88.4255 48.745013,102.18246 39.765262,120.10777 c -9.829715,19.62198 -15.31698,37.90607 -17.766383,59.19918 -1.013583,8.81131 -0.863555,33.35344 0.260292,42.58014 2.650554,21.76072 7.885594,39.13457 17.548635,58.23974 4.448983,8.79624 10.700825,19.07635 15.101371,24.83168 9.716349,12.70768 27.642004,30.52561 40.416864,40.17394 22.469519,16.97034 53.111769,28.91293 84.906809,33.0918 6.52094,0.85705 21.3242,0.98636 31.33321,0.27371 z"
       id="path3725" />
    <path
       style="fill:#b3b3b3;stroke-width:0.50690639"
       d="m 81.639569,336.09984 c -0.836395,-0.52617 -3.339832,-2.80594 -5.563194,-5.06616 l -4.042464,-4.10948 2.454073,-7.47776 c 7.876125,-23.99924 17.362157,-40.10072 32.887286,-55.82249 11.88261,-12.03313 25.87565,-21.58014 40.66516,-27.74456 8.97391,-3.74042 12.33304,-5.34333 13.19599,-6.29687 0.74936,-0.82803 0.68757,-1.03328 -0.83227,-2.76428 -0.90295,-1.02839 -3.50874,-3.32769 -5.79065,-5.10953 -9.31797,-7.27601 -17.14535,-17.56826 -21.8727,-28.76053 -3.79728,-8.99028 -6.14882,-22.54815 -5.46883,-31.5307 2.0943,-27.66563 17.60797,-50.34303 42.48137,-62.097939 11.45869,-5.415269 16.53468,-6.347767 32.2212,-5.919268 14.15935,0.386773 19.78794,1.592644 29.12746,6.240259 18.23551,9.074528 31.5534,24.310688 37.78359,43.225798 6.11089,18.55295 4.60424,37.12803 -4.46124,55.00145 -4.99537,9.84882 -10.39951,16.47801 -21.46184,26.32697 -2.43948,2.17192 -4.43542,4.26619 -4.43542,4.65393 0,0.95621 3.15129,2.7258 10.28379,5.7748 31.05993,13.27748 53.05375,33.50292 67.29187,61.88137 5.2276,10.41933 12.01661,29.27333 11.13439,30.92177 -0.71501,1.33602 -9.72397,9.63392 -10.45946,9.63392 -0.75859,0 -0.9122,-0.46748 -2.1686,-6.59936 -2.62643,-12.81819 -9.41948,-28.81242 -17.25982,-40.63824 -15.97198,-24.09103 -41.11408,-41.48089 -69.72066,-48.22322 -18.51655,-4.36421 -39.72326,-4.119 -58.31334,0.67426 -26.95472,6.94997 -51.38978,24.37798 -66.79998,47.64427 -8.308666,12.5444 -16.569985,32.74914 -17.986356,43.98933 -0.195152,1.54872 -0.582935,2.8908 -0.861737,2.9824 -0.278791,0.0916 -1.191222,-0.26397 -2.027618,-0.79014 z M 212.88264,223.18468 c 11.05446,-2.08098 21.0003,-7.65192 29.53816,-16.54514 11.17421,-11.63933 16.88944,-25.56627 16.88944,-41.1564 0,-7.20222 -0.89235,-12.94976 -2.95292,-19.0194 -9.98667,-29.41679 -41.04053,-46.53824 -70.7215,-38.99209 -15.41871,3.92009 -28.43286,13.5316 -36.6528,27.06967 -13.09573,21.56843 -11.23135,47.8147 4.84291,68.1771 9.29074,11.76923 23.57972,19.80074 37.83561,21.26651 5.66437,0.58241 15.93329,0.19516 21.2211,-0.80025 z"
       id="path3727" />
    <path
       style="fill:#b3b3b3;stroke:none;stroke-width:0.42666668;stroke-opacity:1"
       d="M 189.72999,391.13139 C 146.063,387.98689 107.64342,372.47692 75.928318,345.18969 59.055004,330.67212 45.870056,315.02068 34.898834,296.48485 9.5696014,253.69123 2.2785524,201.46412 14.787058,152.42054 20.112486,131.5405 28.006245,113.55485 39.505462,96.100537 54.115339,73.924648 72.551388,55.3594 94.58332,40.636701 129.19974,17.504497 168.40112,6.937297 211.10317,9.2273871 c 28.61447,1.5345809 57.85984,10.0978329 82.54777,24.1705769 25.20257,14.366101 48.02044,35.400595 64.08457,59.075906 19.3104,28.45967 30.49605,60.47513 32.7954,93.86667 0.60725,8.81857 0.23524,29.06998 -0.66047,35.95444 -2.20108,16.91767 -5.83694,31.93529 -10.76634,44.46955 -2.97143,7.55562 -10.05715,22.12313 -14.65083,30.1206 -3.93834,6.85653 -10.19827,16.26696 -13.9432,20.96055 -5.808,7.27925 -23.36925,24.95861 -31.38744,31.59854 -21.67177,17.94657 -54.41603,32.94864 -84.37931,38.65915 -11.78966,2.24691 -34.57521,3.77968 -45.01333,3.02802 z m 19.62666,-12.37798 c 28.0206,-1.66968 47.24596,-6.92545 72.89489,-19.9278 12.69088,-6.43345 20.74814,-11.74895 29.8641,-19.70182 2.30945,-2.01479 4.70312,-3.99304 5.31929,-4.3961 1.72741,-1.13001 9.89506,-8.86959 9.89506,-9.37646 0,-0.24726 1.68,-2.21204 3.73333,-4.36616 13.54464,-14.20952 21.06444,-24.96396 29.5572,-42.2712 10.07928,-20.54038 15.7438,-39.84779 17.52492,-59.73333 0.63602,-7.10093 0.62533,-30.75371 -0.0172,-37.97334 -2.8628,-32.16892 -17.40265,-66.96444 -39.1345,-93.65333 C 332.79567,79.742017 321.2788,68.106638 313.9542,62.05668 287.63662,40.318923 256.16213,26.529177 223.00998,22.211776 c -4.91932,-0.640642 -8.9848,-0.777545 -23.04,-0.775859 -21.45398,0.0026 -28.20624,0.711984 -42.81757,4.49853 C 123.02203,34.779385 95.624165,50.685625 71.116653,75.883799 57.89893,89.474019 49.129269,101.66498 40.433222,118.53772 28.648887,141.40261 22.500486,163.89283 21.39845,188.16498 c -0.491296,10.82069 0.04703,29.02426 1.081623,36.57556 2.677585,19.5431 7.544787,35.64841 15.938257,52.7388 8.673017,17.65959 16.673457,29.27043 28.924559,41.97746 2.651691,2.75038 4.728764,5.09318 4.615714,5.20623 -0.294242,0.29424 8.750055,9.03614 10.101184,9.76344 0.620608,0.33407 2.828288,2.12115 4.905954,3.97129 18.075679,16.09618 43.364659,28.83234 70.764249,35.63863 18.70921,4.64753 32.16322,5.87679 51.62666,4.71702 z"
       id="path10" />
  </g>
</svg>
